<svg xmlns="http://www.w3.org/2000/svg" viewBox="0 0 158.71 39.67"><defs><style>.cls-1{fill:none;stroke:#e31c45;stroke-miterlimit:10;stroke-width:2px;}.cls-2{font-size:18px;fill:#1d1d1b;font-family:AzonixRegular, Azonix;}.cls-3{letter-spacing:-0.03em;}.cls-4{letter-spacing:-0.2em;}.cls-5{letter-spacing:-0.09em;}</style></defs><title>Fichier 1</title><g id="Calque_2" data-name="Calque 2"><g id="Calque_1-2" data-name="Calque 1"><path class="cls-1" d="M11.21,7.74a11.52,11.52,0,0,1,5-3.07,12.46,12.46,0,0,1,6.13-.07A18.7,18.7,0,0,1,30.11,8L27,12.44Z"/><path class="cls-1" d="M8.37,13.41C17,16.05,23,17.84,25,18.34a7.36,7.36,0,0,1,1.27.45,8.36,8.36,0,0,1,3.36,3.06,10.32,10.32,0,0,1,1.64,4.41c-5.81-1.45-11.7-3.21-17.63-5.3a7.29,7.29,0,0,1-1-.38,7,7,0,0,1-3.21-3.51,13.11,13.11,0,0,1-.83-2.54C8.49,14.07,8.42,13.69,8.37,13.41Z"/><path class="cls-1" d="M28.6,31.94a11.53,11.53,0,0,1-5,3.06,12.46,12.46,0,0,1-6.13.07,18.47,18.47,0,0,1-7.76-3.43l3.06-4.41Z"/><circle class="cls-1" cx="19.84" cy="19.84" r="18.84"/><text class="cls-2" transform="translate(50.1 27.23)"><tspan class="cls-3">S</tspan><tspan class="cls-4" x="13.12" y="0">t</tspan><tspan class="cls-5" x="23.96" y="0">a</tspan><tspan x="35.59" y="0">ck’Ops</tspan></text></g></g></svg>